<svg xmlns="http://www.w3.org/2000/svg" data-name="Layer 1" viewBox="0 0 100 125" x="0px" y="0px" >
<path d="M10.53918,22.89258V5.88483A.88483.88483,0,0,1,11.424,5H28.43182a.88483.88483,0,0,1,.88483.88483V22.89258a.88488.88488,0,0,1-.88483.88489H11.424A.88488.88488,0,0,1,10.53918,22.89258Zm0,35.61127a.88488.88488,0,0,0,.88483.88488H28.43182a.88488.88488,0,0,0,.88483-.88488V41.49609a.88483.88483,0,0,0-.88483-.88482H11.424a.88483.88483,0,0,0-.88483.88482ZM29.31665,94.11517V77.10736a.88487.88487,0,0,0-.88483-.88483H11.424a.88487.88487,0,0,0-.88483.88483V94.11517A.88487.88487,0,0,0,11.424,95H28.43182A.88487.88487,0,0,0,29.31665,94.11517ZM87.58606,18.70728H42.15759a1.87479,1.87479,0,1,0,0,3.74957H87.58606a1.87479,1.87479,0,0,0,0-3.74957Zm-45.42847-8.637H72.93353a1.87479,1.87479,0,1,0,0-3.74957H42.15759a1.87479,1.87479,0,1,0,0,3.74957Zm45.42847,44.248H42.15759a1.87479,1.87479,0,1,0,0,3.74957H87.58606a1.87479,1.87479,0,0,0,0-3.74957ZM42.15759,45.68176H72.93353a1.87482,1.87482,0,1,0,0-3.74963H42.15759a1.87482,1.87482,0,0,0,0,3.74963ZM87.58606,89.92969H42.15759a1.87479,1.87479,0,1,0,0,3.74957H87.58606a1.87479,1.87479,0,0,0,0-3.74957Zm-45.42847-8.637H72.93353a1.87482,1.87482,0,1,0,0-3.74963H42.15759a1.87482,1.87482,0,0,0,0,3.74963Z" fill='blue'/>
</svg>